REM DIRINDEX 1\2,1\4,1\3\5,1\3\6,1\3\7
REM DIRNAME folder01,folder02,folder03,folder04,folder05,folder06,folder07
TITLE ""
FILE "CD1Track41.mp3" MP3
  TRACK 01 AUDIO
    TITLE "0:"
    INDEX 01 00:00:00
  TRACK 02 AUDIO
    TITLE "4:cjc083_0849"
    INDEX 01 00:00:31
  TRACK 03 AUDIO
    TITLE "0:"
    INDEX 01 00:04:54
  TRACK 04 AUDIO
    TITLE "5:cjc083_0850"
    INDEX 01 00:05:18
  TRACK 05 AUDIO
    TITLE "0:"
    INDEX 01 00:06:65
  TRACK 06 AUDIO
    TITLE "6:cjc083_0851"
    INDEX 01 00:07:33
  TRACK 07 AUDIO
    TITLE "0:"
    INDEX 01 00:08:62
  TRACK 08 AUDIO
    TITLE "5:cjc083_0852"
    INDEX 01 00:09:28
  TRACK 09 AUDIO
    TITLE "0:"
    INDEX 01 00:10:63
  TRACK 10 AUDIO
    TITLE "6:cjc083_0853"
    INDEX 01 00:11:33
  TRACK 11 AUDIO
    TITLE "0:"
    INDEX 01 00:13:47
  TRACK 12 AUDIO
    TITLE "5:cjc083_0854"
    INDEX 01 00:14:15
  TRACK 13 AUDIO
    TITLE "0:"
    INDEX 01 00:16:30
  TRACK 14 AUDIO
    TITLE "6:cjc083_0855"
    INDEX 01 00:17:06
  TRACK 15 AUDIO
    TITLE "0:"
    INDEX 01 00:19:30
  TRACK 16 AUDIO
    TITLE "5:cjc083_0856"
    INDEX 01 00:19:73
  TRACK 17 AUDIO
    TITLE "0:"
    INDEX 01 00:21:09
  TRACK 18 AUDIO
    TITLE "6:cjc083_0857"
    INDEX 01 00:21:55
  TRACK 19 AUDIO
    TITLE "0:"
    INDEX 01 00:23:08
  TRACK 20 AUDIO
    TITLE "5:cjc083_0858"
    INDEX 01 00:23:53
  TRACK 21 AUDIO
    TITLE "0:"
    INDEX 01 00:25:15
  TRACK 22 AUDIO
    TITLE "6:cjc083_0859"
    INDEX 01 00:25:58
  TRACK 23 AUDIO
    TITLE "0:"
    INDEX 01 00:27:18
  TRACK 24 AUDIO
    TITLE "5:cjc083_0860"
    INDEX 01 00:27:65
  TRACK 25 AUDIO
    TITLE "0:"
    INDEX 01 00:29:05
  TRACK 26 AUDIO
    TITLE "6:cjc083_0861"
    INDEX 01 00:29:46
  TRACK 27 AUDIO
    TITLE "0:"
    INDEX 01 00:30:69
  TRACK 28 AUDIO
    TITLE "5:cjc083_0862"
    INDEX 01 00:31:33
  TRACK 29 AUDIO
    TITLE "0:"
    INDEX 01 00:32:50
  TRACK 30 AUDIO
    TITLE "6:cjc083_0863"
    INDEX 01 00:33:17
  TRACK 31 AUDIO
    TITLE "0:"
    INDEX 01 00:34:59
  TRACK 32 AUDIO
    TITLE "5:cjc083_0864"
    INDEX 01 00:35:31
  TRACK 33 AUDIO
    TITLE "0:"
    INDEX 01 00:36:48
  TRACK 34 AUDIO
    TITLE "6:cjc083_0865"
    INDEX 01 00:37:14
  TRACK 35 AUDIO
    TITLE "0:"
    INDEX 01 00:39:68
  TRACK 36 AUDIO
    TITLE "5:cjc083_0866"
    INDEX 01 00:40:38
  TRACK 37 AUDIO
    TITLE "0:"
    INDEX 01 00:41:69
  TRACK 38 AUDIO
    TITLE "6:cjc083_0867"
    INDEX 01 00:42:37
  TRACK 39 AUDIO
    TITLE "0:"
    INDEX 01 00:43:74
  TRACK 40 AUDIO
    TITLE "5:cjc083_0868"
    INDEX 01 00:44:42
  TRACK 41 AUDIO
    TITLE "0:"
    INDEX 01 00:45:59
  TRACK 42 AUDIO
    TITLE "6:cjc083_0869"
    INDEX 01 00:46:23
  TRACK 43 AUDIO
    TITLE "0:"
    INDEX 01 00:48:38
  TRACK 44 AUDIO
    TITLE "5:cjc083_0870"
    INDEX 01 00:49:06
  TRACK 45 AUDIO
    TITLE "0:"
    INDEX 01 00:50:27
  TRACK 46 AUDIO
    TITLE "6:cjc083_0871"
    INDEX 01 00:50:74
  TRACK 47 AUDIO
    TITLE "0:"
    INDEX 01 00:52:37
  TRACK 48 AUDIO
    TITLE "5:cjc083_0872"
    INDEX 01 00:53:06
  TRACK 49 AUDIO
    TITLE "0:"
    INDEX 01 00:54:17
  TRACK 50 AUDIO
    TITLE "6:cjc083_0873"
    INDEX 01 00:54:56
  TRACK 51 AUDIO
    TITLE "0:"
    INDEX 01 00:55:53
  TRACK 52 AUDIO
    TITLE "5:cjc083_0874"
    INDEX 01 00:56:22
  TRACK 53 AUDIO
    TITLE "0:"
    INDEX 01 00:57:35
  TRACK 54 AUDIO
    TITLE "6:cjc083_0875"
    INDEX 01 00:58:03
  TRACK 55 AUDIO
    TITLE "0:"
    INDEX 01 00:59:18
  TRACK 56 AUDIO
    TITLE "5:cjc083_0876"
    INDEX 01 00:59:59
  TRACK 57 AUDIO
    TITLE "0:"
    INDEX 01 01:00:60
  TRACK 58 AUDIO
    TITLE "6:cjc083_0877"
    INDEX 01 01:01:36
  TRACK 59 AUDIO
    TITLE "0:"
    INDEX 01 01:02:38
  TRACK 60 AUDIO
    TITLE "5:cjc083_0878"
    INDEX 01 01:03:08
  TRACK 61 AUDIO
    TITLE "0:"
    INDEX 01 01:04:11
  TRACK 62 AUDIO
    TITLE "6:cjc083_0879"
    INDEX 01 01:04:54
  TRACK 63 AUDIO
    TITLE "0:"
    INDEX 01 01:06:06
  TRACK 64 AUDIO
    TITLE "5:cjc083_0880"
    INDEX 01 01:06:45
  TRACK 65 AUDIO
    TITLE "0:"
    INDEX 01 01:07:68
  TRACK 66 AUDIO
    TITLE "6:cjc083_0881"
    INDEX 01 01:08:29
  TRACK 67 AUDIO
    TITLE "0:"
    INDEX 01 01:09:54
  TRACK 68 AUDIO
    TITLE "5:cjc083_0882"
    INDEX 01 01:10:20
  TRACK 69 AUDIO
    TITLE "0:"
    INDEX 01 01:11:33
  TRACK 70 AUDIO
    TITLE "6:cjc083_0883"
    INDEX 01 01:11:74
  TRACK 71 AUDIO
    TITLE "0:"
    INDEX 01 01:13:06
  TRACK 72 AUDIO
    TITLE "5:cjc083_0884"
    INDEX 01 01:13:47
  TRACK 73 AUDIO
    TITLE "0:"
    INDEX 01 01:14:65
  TRACK 74 AUDIO
    TITLE "6:cjc083_0885"
    INDEX 01 01:15:31
  TRACK 75 AUDIO
    TITLE "0:"
    INDEX 01 01:16:63
  TRACK 76 AUDIO
    TITLE "7:cjc083_0886"
    INDEX 01 01:18:27
  TRACK 77 AUDIO
    TITLE "0:"
    INDEX 01 01:28:41
